# Apple ModelIO OBJ File: Church_pew
mtllib Church_pew.mtl
g pCube9_initialShadingGroup
v -1.23583 2.34976 3.83526
v -1.28124 2.39516 3.83526
v -1.28124 2.39516 -3.83526
v -1.23583 2.34976 -3.83526
v -1.50769 2.34569 3.88067
v -1.36148 2.34788 3.85625
v 1.23583 2.34976 3.83526
v 1.23583 2.34569 3.88067
v -1.55409 2.60841 3.83526
v -1.50868 2.55893 3.88067
v -1.50868 2.66765 3.88067
v -1.55409 2.66765 3.83526
v 1.28124 2.39516 3.83526
v 1.23583 2.34976 -3.83526
v 1.28124 2.39516 -3.83526
v 1.28124 2.66765 3.83526
v 1.23583 2.66765 3.88067
v -1.28124 2.66765 3.83526
v -1.23583 2.71306 3.83526
v -1.23583 2.71306 -3.83526
v -1.28124 2.66765 -3.83526
v -1.07577 2.66765 3.88067
v 1.23583 2.71306 3.83526
v 1.28124 2.66765 -3.83526
v 1.23583 2.71306 -3.83526
v -1.55409 2.66765 -3.83526
v -1.50868 2.66765 -3.88067
v -1.50868 2.55893 -3.88067
v -1.55409 2.60841 -3.83526
v -1.07577 2.66765 -3.88067
v 1.23583 2.66765 -3.88067
v 1.23583 2.34569 -3.88067
v -1.30951 2.34865 -3.84757
v -1.50769 2.34569 -3.88067
v -1.50769 2.34569 4.15052
v 1.23583 2.34569 4.15052
v 1.23583 2.66765 4.15052
v -1.07577 2.66765 4.15052
v -1.08573 2.88818 3.55119
v 1.08573 2.88818 3.55119
v 1.08573 2.88818 -3.55119
v -1.08573 2.88818 -3.55119
v -1.07577 2.66765 -4.15052
v 1.23583 2.66765 -4.15052
v 1.23583 2.34569 -4.15052
v -1.50769 2.34569 -4.15052
v 1.13602 2.71306 3.71569
v -1.13602 2.71306 3.71569
v 1.13602 2.71306 -3.71569
v -1.13602 2.71306 -3.71569
v 1.15018 2.76655 3.76201
v -1.15018 2.76655 3.76201
v 1.15018 2.76655 -3.76201
v -1.15018 2.76655 -3.76201
v 1.15018 2.83149 3.76201
v -1.15018 2.83149 3.76201
v 1.15018 2.83149 -3.76201
v -1.15018 2.83149 -3.76201
v -1.50773 0.786468 3.88067
v 1.23583 0.786468 3.88067
v 1.23583 0.786468 4.15052
v -1.50773 0.786468 4.15052
v 1.23583 5.02083 3.88067
v -1.23583 5.16486 3.88067
v -1.23583 5.16486 4.15052
v 1.23583 5.02083 4.15052
v -1.50868 2.55893 4.15052
v -1.50868 2.66765 4.15052
v -1.23583 5.16486 -3.88067
v 1.23583 5.02083 -3.88067
v 1.23583 5.02083 -4.15052
v -1.23583 5.16486 -4.15052
v 1.23583 0.786468 -3.88067
v -1.50773 0.786468 -3.88067
v -1.50773 0.786468 -4.15052
v 1.23583 0.786468 -4.15052
v -1.50868 2.66765 -4.15052
v -1.50868 2.55893 -4.15052
v -1.26324 5.19226 3.89202
v -1.26324 5.19226 4.12311
v -1.30864 5.19226 3.84661
v -1.28124 5.16486 3.83526
v -1.28124 5.16486 -3.83526
v -1.30864 5.19226 -3.84661
v -1.55409 5.16486 3.83526
v -1.52669 5.19226 3.82391
v -1.52669 5.19226 -3.82391
v -1.55409 5.16486 -3.83526
v -1.48128 5.19226 3.86932
v -1.50868 5.16486 3.88067
v -1.50868 5.16486 4.15052
v -1.48128 5.19226 4.12311
v -1.26324 5.19226 -3.89202
v -1.26324 5.19226 -4.12311
v -1.50868 5.16486 -3.88067
v -1.48128 5.19226 -3.86932
v -1.48128 5.19226 -4.12311
v -1.50868 5.16486 -4.15052
vn -0.707106 -0.707108 0
vn 0 -0.996015 -0.089187
vn -0.707106 0 0.707108
vn 0.707106 -0.707108 0
vn 0.707107 0 0.707107
vn -0.70711 0.707104 0
vn 0 0.707104 0.70711
vn 0.70711 0.707104 0
vn -0.707106 0 -0.707108
vn 0 0.707104 -0.70711
vn 0.707107 0 -0.707107
vn 0 -0.996015 0.089187
vn 0 0 1
vn -0.027898 0.999575 0.008467
vn 0.027898 0.999575 0.008467
vn 0.027898 0.999575 -0.008467
vn -0.027898 0.999575 -0.008467
vn 0 0 -1
vn 0 -1 0
vn 1 0 0
vn -1 0 0
vn -0.160281 -0.16028 -0.973971
vn 0.705695 -0.705692 -0.063191
vn -0.210931 0.210931 0.954472
vn 0.57735 0.577347 0.577354
vn -0.210931 0.210931 -0.954472
vn 0.57735 0.577347 -0.577354
vn -0.160281 -0.160281 0.973971
vn 0.705695 -0.705692 0.063191
vn 0 1 -0
vn -0.853432 -0.45147 0.26044
vn 0.853432 -0.45147 0.26044
vn 0.932931 -0.219411 0.285479
vn -0.932931 -0.219411 0.285479
vn 0.853432 -0.45147 -0.26044
vn 0.932931 -0.219411 -0.285479
vn -0.853432 -0.45147 -0.26044
vn -0.932931 -0.219411 -0.285479
vn 0.696342 0.685147 0.213729
vn -0.696342 0.685147 0.213729
vn 0.696342 0.685147 -0.213729
vn -0.696342 0.685147 -0.213729
vn 0.058176 0.998306 0
vn -1 2.4e-05 0
vn -0.339708 -0.218126 -0.914888
vn -0.339708 -0.218126 0.914888
vn -0.615781 -0.787917 0
vn -0.999989 -0.00465 0
vn 0.707107 0.707106 0
vn 0.499994 0.707112 -0.499999
vn 0.707105 0.707108 0
vn -0.707104 0.70711 0
vn -0.499997 0.707112 0.499996
vn -0.707105 0.707109 0
vn 0.499994 0.707112 0.499999
vn -0.499997 0.707112 -0.499996
vn 0 0.707115 0.707098
vn 0 0.707115 -0.707098
vn 0 1 1e-06
vn 0.340354 0.010908 -0.940234
vn 0.340355 0.010908 -0.940234
vn 0.340355 0.010908 0.940234
vn 0.340354 0.010908 0.940234
vt 0.294267 0.039659
vt 0.294267 0.048073
vt 0.227737 0.048073
vt 0.227737 0.039659
vt 0.530661 0.08834
vt 0.534502 0.087935
vt 0.537803 0.087587
vt 0.602735 0.087587
vt 0.602735 0.08834
vt 0.299429 0.048827
vt 0.300622 0.039659
vt 0.300622 0.059804
vt 0.299429 0.059804
vt 0.715041 0.048827
vt 0.715041 0.040413
vt 0.781572 0.040413
vt 0.781572 0.048827
vt 0.804492 0.11079
vt 0.805685 0.119957
vt 0.805685 0.170447
vt 0.804492 0.170447
vt 0.653231 0.380318
vt 0.661645 0.380318
vt 0.661645 0.446848
vt 0.653231 0.446848
vt 0.739559 0.178861
vt 0.743764 0.170447
vt 0.804492 0.178861
vt 0.715041 0.107731
vt 0.715041 0.099317
vt 0.781572 0.099317
vt 0.781572 0.107731
vt 0.306897 0.507463
vt 0.30809 0.507463
vt 0.30809 0.527607
vt 0.306897 0.51844
vt 0.623453 0.349149
vt 0.619248 0.340735
vt 0.684181 0.340735
vt 0.684181 0.349149
vt 0.685374 0.349149
vt 0.685374 0.39964
vt 0.684181 0.408807
vt 0.616963 0.329332
vt 0.615028 0.329128
vt 0.609821 0.328579
vt 0.681896 0.328579
vt 0.681896 0.329332
vt 0.042408 0.328579
vt 0.114482 0.328579
vt 0.114482 0.388236
vt 0.053755 0.388236
vt 0.985315 0.678984
vt 0.985315 0.926166
vt 0.718387 0.926166
vt 0.718387 0.678984
vt 0.131571 0.507463
vt 0.192299 0.507463
vt 0.192299 0.567121
vt 0.120224 0.567121
vt 0.583597 0.380318
vt 0.648529 0.380318
vt 0.648529 0.446849
vt 0.583597 0.446849
vt 0.227737 0.087587
vt 0.294267 0.087587
vt 0.294267 0.098564
vt 0.227737 0.098564
vt 0.53661 0.079173
vt 0.714647 0.039659
vt 0.738366 0.170447
vt 0.618056 0.349149
vt 0.61577 0.337746
vt 0.781965 0.039659
vt 0.513962 0.510522
vt 0.578895 0.510522
vt 0.576273 0.511559
vt 0.516584 0.511559
vt 0.578895 0.577052
vt 0.576273 0.576015
vt 0.513962 0.577052
vt 0.516584 0.576015
vt 0.455848 0.821791
vt 0.71448 0.821791
vt 0.716092 0.864743
vt 0.454235 0.864743
vt 0.704281 0.389806
vt 0.983574 0.389806
vt 0.985315 0.432758
vt 0.70254 0.432758
vt 0.698633 0.818264
vt 0.440001 0.818264
vt 0.438388 0.775312
vt 0.700245 0.775312
vt 0.704281 0.534451
vt 0.983574 0.534451
vt 0.985315 0.577403
vt 0.70254 0.577403
vt 0.716092 0.916879
vt 0.454235 0.916879
vt 0.985315 0.484893
vt 0.70254 0.484893
vt 0.438388 0.723177
vt 0.700245 0.723177
vt 0.985315 0.629538
vt 0.70254 0.629538
vt 0.708755 0.962394
vt 0.461573 0.962394
vt 0.977392 0.530409
vt 0.710463 0.530409
vt 0.445726 0.677661
vt 0.692908 0.677661
vt 0.977391 0.675054
vt 0.710463 0.675054
vt 0.687763 0.111735
vt 0.687763 0.039659
vt 0.690103 0.039659
vt 0.690103 0.111735
vt 0.215141 0.328579
vt 0.215141 0.388236
vt 0.212801 0.388236
vt 0.212801 0.328579
vt 0.509261 0.510522
vt 0.509261 0.575454
vt 0.50692 0.575454
vt 0.50692 0.510522
vt 0.197963 0.388236
vt 0.197963 0.368092
vt 0.200304 0.368092
vt 0.200304 0.388236
vt 0.499878 0.575454
vt 0.499878 0.510522
vt 0.502218 0.510522
vt 0.502218 0.575454
vt 0.220269 0.388236
vt 0.220269 0.328579
vt 0.222609 0.328579
vt 0.222609 0.388236
vt 0.697571 0.039659
vt 0.697571 0.111735
vt 0.69523 0.111735
vt 0.69523 0.039659
vt 0.207673 0.368092
vt 0.207673 0.388236
vt 0.205333 0.388236
vt 0.205333 0.368092
vt 0.38121 0.507463
vt 0.320483 0.507463
vt 0.316278 0.044737
vt 0.38121 0.071426
vt 0.04955 0.850962
vt 0.114482 0.824273
vt 0.215141 0.824273
vt 0.212801 0.824273
vt 0.392175 0.039659
vt 0.452902 0.039659
vt 0.38797 0.502385
vt 0.452902 0.475696
vt 0.222609 0.824273
vt 0.220269 0.824273
vt 0.127366 0.044737
vt 0.192299 0.071426
vt 0.602735 0.377259
vt 0.53066 0.377259
vt 0.212801 0.039659
vt 0.215141 0.039659
vt 0.042407 0.039659
vt 0.114482 0.039659
vt 0.200304 0.328579
vt 0.197963 0.328579
vt 0.197963 0.039659
vt 0.200304 0.039659
vt 0.60982 0.039659
vt 0.681896 0.039659
vt 0.207673 0.328579
vt 0.205333 0.328579
vt 0.205333 0.039659
vt 0.207673 0.039659
vt 0.192299 0.85604
vt 0.120223 0.85604
vt 0.220269 0.039659
vt 0.222609 0.039659
vt 0.530635 0.048827
vt 0.529442 0.039659
vt 0.609795 0.368092
vt 0.608602 0.377259
vt 0.042382 0.368092
vt 0.042382 0.388236
vt 0.120198 0.527607
vt 0.120198 0.507463
vt 0.495176 0.510522
vt 0.495077 0.5156
vt 0.493073 0.5156
vt 0.492835 0.510522
vt 0.315558 0.039659
vt 0.314365 0.039659
vt 0.315085 0.044737
vt 0.45775 0.507463
vt 0.457848 0.502385
vt 0.524379 0.502385
vt 0.524477 0.507463
vt 0.294267 0.561289
vt 0.294169 0.566367
vt 0.227835 0.566367
vt 0.227737 0.561289
vt 0.300149 0.527607
vt 0.299429 0.52253
vt 0.301342 0.527607
vt 0.300622 0.52253
vt 0.197865 0.85604
vt 0.197963 0.850962
vt 0.200304 0.850962
vt 0.200066 0.85604
vt 0.386057 0.507463
vt 0.386777 0.502385
vt 0.38725 0.507463
vt 0.485891 0.5156
vt 0.485793 0.510522
vt 0.488134 0.510522
vt 0.487896 0.5156
vt 0.207673 0.850962
vt 0.207772 0.85604
vt 0.20557 0.85604
vt 0.205333 0.850962
vt 0.30881 0.039659
vt 0.30809 0.044737
vt 0.306897 0.044737
vt 0.307617 0.039659
vt 0.04883 0.85604
vt 0.043102 0.85604
vt 0.042382 0.850962
vt 0.126646 0.039659
vt 0.120198 0.044737
vt 0.120918 0.039659
vt 0.70962 0.041664
vt 0.708427 0.042058
vt 0.703892 0.041861
vt 0.702698 0.042255
vt 0.708427 0.108785
vt 0.70962 0.109179
vt 0.703892 0.108982
vt 0.702698 0.108588
vt 0.70962 0.039659
vt 0.703892 0.039659
vt 0.70962 0.111183
vt 0.703892 0.111183
vt 0.315085 0.507463
vt 0.386777 0.039659
vt 0.457848 0.039659
vt 0.524379 0.039659
usemtl initialShadingGroup
f 1/1/1 2/2/1 3/3/1
f 1/1/1 3/3/1 4/4/1
f 5/5/2 6/6/2 1/7/2
f 5/5/2 1/7/2 7/8/2
f 5/5/2 7/8/2 8/9/2
f 9/10/3 10/11/3 11/12/3
f 9/10/3 11/12/3 12/13/3
f 13/14/4 7/15/4 14/16/4
f 13/14/4 14/16/4 15/17/4
f 8/18/5 13/19/5 16/20/5
f 8/18/5 16/20/5 17/21/5
f 18/22/6 19/23/6 20/24/6
f 18/22/6 20/24/6 21/25/6
f 19/26/7 22/27/7 17/21/7
f 19/26/7 17/21/7 23/28/7
f 23/29/8 16/30/8 24/31/8
f 23/29/8 24/31/8 25/32/8
f 26/33/9 27/34/9 28/35/9
f 26/33/9 28/35/9 29/36/9
f 30/37/10 20/38/10 25/39/10
f 30/37/10 25/39/10 31/40/10
f 31/40/11 24/41/11 15/42/11
f 31/40/11 15/42/11 32/43/11
f 4/44/12 33/45/12 34/46/12
f 4/44/12 34/46/12 32/47/12
f 4/44/12 32/47/12 14/48/12
f 35/49/13 36/50/13 37/51/13
f 35/49/13 37/51/13 38/52/13
f 39/53/14 40/54/15 41/55/16
f 39/53/14 41/55/16 42/56/17
f 43/57/18 44/58/18 45/59/18
f 43/57/18 45/59/18 46/60/18
f 4/61/19 14/62/19 7/63/19
f 4/61/19 7/63/19 1/64/19
f 13/14/20 15/17/20 24/31/20
f 13/14/20 24/31/20 16/30/20
f 29/65/21 9/66/21 12/67/21
f 29/65/21 12/67/21 26/68/21
f 1/7/22 6/6/22 2/69/22
f 6/6/22 5/5/22 2/69/22
f 13/14/23 8/70/23 7/15/23
f 18/71/24 22/27/24 19/26/24
f 23/28/25 17/21/25 16/20/25
f 21/72/26 20/38/26 30/37/26
f 31/40/27 25/39/27 24/41/27
f 3/73/28 34/46/28 33/45/28
f 3/73/28 33/45/28 4/44/28
f 14/16/29 32/74/29 15/17/29
f 19/75/30 23/76/30 47/77/30
f 19/75/30 47/77/30 48/78/30
f 23/76/30 25/79/30 49/80/30
f 23/76/30 49/80/30 47/77/30
f 25/79/30 20/81/30 50/82/30
f 25/79/30 50/82/30 49/80/30
f 20/81/30 19/75/30 48/78/30
f 20/81/30 48/78/30 50/82/30
f 48/83/31 47/84/32 51/85/33
f 48/83/31 51/85/33 52/86/34
f 47/87/32 49/88/35 53/89/36
f 47/87/32 53/89/36 51/90/33
f 49/91/35 50/92/37 54/93/38
f 49/91/35 54/93/38 53/94/36
f 50/95/37 48/96/31 52/97/34
f 50/95/37 52/97/34 54/98/38
f 52/86/34 51/85/33 55/99/39
f 52/86/34 55/99/39 56/100/40
f 51/90/33 53/89/36 57/101/41
f 51/90/33 57/101/41 55/102/39
f 53/94/36 54/93/38 58/103/42
f 53/94/36 58/103/42 57/104/41
f 54/98/38 52/97/34 56/105/40
f 54/98/38 56/105/40 58/106/42
f 56/100/40 55/99/39 40/107/15
f 56/100/40 40/107/15 39/108/14
f 55/102/39 57/101/41 41/109/16
f 55/102/39 41/109/16 40/110/15
f 57/104/41 58/103/42 42/111/17
f 57/104/41 42/111/17 41/112/16
f 58/106/42 56/105/40 39/113/14
f 58/106/42 39/113/14 42/114/17
f 59/115/19 60/116/19 61/117/19
f 59/115/19 61/117/19 62/118/19
f 8/119/20 17/120/20 37/121/20
f 8/119/20 37/121/20 36/122/20
f 63/123/43 64/124/43 65/125/43
f 63/123/43 65/125/43 66/126/43
f 11/127/21 10/128/21 67/129/21
f 11/127/21 67/129/21 68/130/21
f 69/131/43 70/132/43 71/133/43
f 69/131/43 71/133/43 72/134/43
f 31/135/20 32/136/20 45/137/20
f 31/135/20 45/137/20 44/138/20
f 73/139/19 74/140/19 75/141/19
f 73/139/19 75/141/19 76/142/19
f 28/143/21 27/144/21 77/145/21
f 28/143/21 77/145/21 78/146/21
f 17/147/18 22/148/18 64/149/18
f 17/147/18 64/149/18 63/150/18
f 38/52/13 37/51/13 65/151/13
f 37/51/13 66/152/13 65/151/13
f 37/121/20 17/120/20 63/153/20
f 37/121/20 63/153/20 66/154/20
f 30/155/13 31/156/13 69/157/13
f 31/156/13 70/158/13 69/157/13
f 31/135/20 44/138/20 71/159/20
f 31/135/20 71/159/20 70/160/20
f 44/58/18 43/57/18 72/161/18
f 44/58/18 72/161/18 71/162/18
f 5/5/18 8/9/18 60/163/18
f 5/5/18 60/163/18 59/164/18
f 8/119/20 36/122/20 61/165/20
f 8/119/20 61/165/20 60/166/20
f 36/50/13 35/49/13 62/167/13
f 36/50/13 62/167/13 61/168/13
f 35/169/44 5/170/44 59/171/44
f 35/169/44 59/171/44 62/172/44
f 32/47/13 34/46/13 74/173/13
f 32/47/13 74/173/13 73/174/13
f 34/175/44 46/176/44 75/177/44
f 34/175/44 75/177/44 74/178/44
f 46/60/18 45/59/18 76/179/18
f 46/60/18 76/179/18 75/180/18
f 45/137/20 32/136/20 73/181/20
f 45/137/20 73/181/20 76/182/20
f 2/69/45 5/5/45 10/183/45
f 2/69/45 10/183/45 9/184/45
f 34/46/46 3/73/46 28/185/46
f 3/73/46 29/186/46 28/185/46
f 3/3/47 2/2/47 9/66/47
f 3/3/47 9/66/47 29/65/47
f 5/170/48 35/169/48 67/129/48
f 5/170/48 67/129/48 10/128/48
f 35/49/13 38/52/13 67/187/13
f 38/52/13 68/188/13 67/187/13
f 43/57/18 46/60/18 78/189/18
f 43/57/18 78/189/18 77/190/18
f 46/176/48 34/175/48 28/143/48
f 46/176/48 28/143/48 78/146/48
f 64/191/49 79/192/49 80/193/49
f 64/191/49 80/193/49 65/194/49
f 79/195/50 64/149/50 81/196/50
f 64/149/50 82/197/50 81/196/50
f 81/198/51 82/199/51 83/200/51
f 81/198/51 83/200/51 84/201/51
f 85/202/52 86/203/52 87/204/52
f 85/202/52 87/204/52 88/205/52
f 86/206/53 85/207/53 89/208/53
f 85/207/53 90/209/53 89/208/53
f 89/210/54 90/211/54 91/212/54
f 89/210/54 91/212/54 92/213/54
f 84/214/55 83/215/55 69/157/55
f 84/214/55 69/157/55 93/216/55
f 93/217/49 69/218/49 72/219/49
f 93/217/49 72/219/49 94/220/49
f 95/221/54 96/222/54 97/223/54
f 95/221/54 97/223/54 98/224/54
f 96/225/56 95/226/56 88/227/56
f 96/225/56 88/227/56 87/228/56
f 65/151/57 80/229/57 92/230/57
f 65/151/57 92/230/57 91/231/57
f 94/232/58 72/161/58 98/233/58
f 94/232/58 98/233/58 97/234/58
f 79/235/30 81/236/30 89/237/59
f 81/236/30 86/238/30 89/237/59
f 84/239/30 93/240/30 96/241/30
f 84/239/30 96/241/30 87/242/30
f 81/236/30 84/239/30 87/242/30
f 81/236/30 87/242/30 86/238/30
f 80/243/30 79/235/30 89/237/59
f 80/243/30 89/237/59 92/244/30
f 93/240/30 94/245/30 97/246/30
f 93/240/30 97/246/30 96/241/30
f 22/148/60 18/247/61 82/197/61
f 22/148/60 82/197/61 64/149/60
f 12/13/3 11/12/3 90/209/3
f 12/13/3 90/209/3 85/207/3
f 21/248/62 30/155/63 83/215/62
f 30/155/63 69/157/63 83/215/62
f 27/34/9 26/33/9 88/227/9
f 27/34/9 88/227/9 95/226/9
f 18/249/20 21/250/20 83/200/20
f 18/249/20 83/200/20 82/199/20
f 26/68/21 12/67/21 85/202/21
f 26/68/21 85/202/21 88/205/21
f 11/127/21 68/130/21 91/212/21
f 11/127/21 91/212/21 90/211/21
f 68/188/13 38/52/13 65/151/13
f 68/188/13 65/151/13 91/231/13
f 43/57/18 77/190/18 98/233/18
f 43/57/18 98/233/18 72/161/18
f 77/145/21 27/144/21 95/221/21
f 77/145/21 95/221/21 98/224/21
s off
